<?xml version="1.0" standalone="no"?>
<svg xmlns:xlink="http://www.w3.org/1999/xlink" id="wave" style="transform:rotate(180deg); transition: 0.3s" viewBox="0 0 1440 160" version="1.1" xmlns="http://www.w3.org/2000/svg"><defs><linearGradient id="sw-gradient-0" x1="0" x2="0" y1="1" y2="0"><stop stop-color="rgba(248, 250, 246, 1)" offset="0%"/><stop stop-color="rgba(248, 250, 246, 1)" offset="100%"/></linearGradient></defs><path style="transform:translate(0, 0px); opacity:1" fill="url(#sw-gradient-0)" d="M0,96L80,82.7C160,69,320,43,480,40C640,37,800,59,960,72C1120,85,1280,91,1440,77.3C1600,64,1760,32,1920,24C2080,16,2240,32,2400,50.7C2560,69,2720,91,2880,88C3040,85,3200,59,3360,48C3520,37,3680,43,3840,40C4000,37,4160,27,4320,26.7C4480,27,4640,37,4800,53.3C4960,69,5120,91,5280,90.7C5440,91,5600,69,5760,53.3C5920,37,6080,27,6240,24C6400,21,6560,27,6720,32C6880,37,7040,43,7200,56C7360,69,7520,91,7680,88C7840,85,8000,59,8160,58.7C8320,59,8480,85,8640,98.7C8800,112,8960,112,9120,114.7C9280,117,9440,123,9600,117.3C9760,112,9920,96,10080,90.7C10240,85,10400,91,10560,96C10720,101,10880,107,11040,101.3C11200,96,11360,80,11440,72L11520,64L11520,160L11440,160C11360,160,11200,160,11040,160C10880,160,10720,160,10560,160C10400,160,10240,160,10080,160C9920,160,9760,160,9600,160C9440,160,9280,160,9120,160C8960,160,8800,160,8640,160C8480,160,8320,160,8160,160C8000,160,7840,160,7680,160C7520,160,7360,160,7200,160C7040,160,6880,160,6720,160C6560,160,6400,160,6240,160C6080,160,5920,160,5760,160C5600,160,5440,160,5280,160C5120,160,4960,160,4800,160C4640,160,4480,160,4320,160C4160,160,4000,160,3840,160C3680,160,3520,160,3360,160C3200,160,3040,160,2880,160C2720,160,2560,160,2400,160C2240,160,2080,160,1920,160C1760,160,1600,160,1440,160C1280,160,1120,160,960,160C800,160,640,160,480,160C320,160,160,160,80,160L0,160Z"/></svg>